<?xml version="1.0" encoding="UTF-8"?><svg xmlns="http://www.w3.org/2000/svg" xmlns:xlink="http://www.w3.org/1999/xlink" viewBox="0 0 481.46 480.72"><defs><style>.cls-1,.cls-2,.cls-3{fill-rule:evenodd;}.cls-1,.cls-4{fill:#807cf0;}.cls-5,.cls-2{fill:#544fdb;}.cls-3,.cls-6{stroke:#000;stroke-miterlimit:100;}.cls-7{fill:url(#Gradiente_sem_nome_29-2);}.cls-8{fill:url(#Gradiente_sem_nome_29);}</style><linearGradient id="Gradiente_sem_nome_29" x1="38.07" y1="257.17" x2="248.75" y2="257.17" gradientUnits="userSpaceOnUse"><stop offset="0" stop-color="#0c1830"/><stop offset=".27" stop-color="#0a152a"/><stop offset=".62" stop-color="#060c19"/><stop offset="1" stop-color="#000"/></linearGradient><linearGradient id="Gradiente_sem_nome_29-2" x1="113.26" y1="298.07" x2="327.95" y2="298.07" xlink:href="#Gradiente_sem_nome_29"/></defs><g id="Camada_17"><path class="cls-2" d="M328.12,258.79c8.93-8.78,17.87-17.56,26.8-26.34"/><rect class="cls-5" x="322.73" y="245.12" width="37.58" height="1" transform="translate(-74.19 309.99) rotate(-44.53)"/><path class="cls-2" d="M309.46,175.65c1.32-1.09,3.58-2.93,6.42-5.13,39.04-30.26,76.75-43.1,94.87-48.29,4.65-1.33,11.65-3.2,20.32-4.99,1.41-3.92,2.81-7.85,4.22-11.77l-19.99,5.64-32.65,14.59-30.37,16.47-23.82,15.24-16.06,12.82-5.33,5.41h2.38Z"/><path class="cls-5" d="M308.27,177.39h-3.8l6.23-6.37,16.28-13.08,24.12-15.54,30.74-16.77,33.04-14.86,21.22-6.04-4.69,13.17-.28.06c-6.9,1.43-13.8,3.13-20.51,5.06-34.12,9.84-67.22,26.8-95.73,49.04-2.18,1.7-4.36,3.45-6.48,5.21l-.14.12ZM306.88,176.37h1.02c2.08-1.72,4.22-3.44,6.36-5.11,28.61-22.32,61.83-39.34,96.07-49.22,6.64-1.91,13.47-3.6,20.3-5.02l3.83-10.78-19.26,5.47-32.93,14.82-30.67,16.74-24.05,15.49-16.19,13.01-4.49,4.6Z"/><path class="cls-2" d="M296.84,160.01c11.41-10.1,26.04-21.11,44.08-30.76,36.7-19.62,70.97-24.74,93.87-25.84.44-.02.54.63.13.77-36.75,12.07-76.03,30.9-113.96,60.35-4.19,3.25-8.25,6.55-12.19,9.88"/><path class="cls-5" d="M309.09,174.78l-.65-.76c3.99-3.37,8.09-6.7,12.2-9.89,33.8-26.25,71.93-46.49,113.36-60.19-32.83,1.7-64.06,10.36-92.85,25.75-15.59,8.34-30.39,18.66-43.99,30.69l-.66-.75c13.65-12.08,28.52-22.45,44.18-30.83,29.15-15.59,60.8-24.3,94.08-25.9.47,0,.81.28.9.72.08.45-.17.88-.59,1.02-41.61,13.66-79.9,33.94-113.81,60.27-4.1,3.18-8.19,6.5-12.17,9.86Z"/><path class="cls-2" d="M402.63,166.37c1.51-2.78,6.23-11.45,9.84-17.72,1.21-2.1,2.7-4.67,2.7-4.67,5.46-9.41,5.07-8.55,6.28-10.77.9-1.65,3.16-6.01,3.9-7.55,2.87-5.94,4.82-14.75,4.92-14.72.09.03-1.76,5.87-.98,6.27,1.17.6,7.01-11.91,8.12-11.4,1.52.7-6.57,25.5-15.42,46.35-1.47,3.47-3.2,7.36-5.23,11.63-2.27,4.78-4.29,8.69-5.75,11.44-.54,1.02-4.53,8.5-9.19,16.04-11.96,19.34-26.34,35.22-32.75,42.24-5.43,5.95-8.77,9.61-14.02,14.42-12.83,11.76-29.65,23.6-31.13,21.75-2.24-2.8,31.98-34.91,57.76-70.99,1.8-2.52,14.39-20.21,20.97-32.33Z"/><path class="cls-5" d="M324.42,270.38s-.08,0-.12,0c-.42-.03-.66-.22-.78-.37-1.23-1.54,3.09-6.53,15.78-20.74,11.85-13.27,28.09-31.44,41.96-50.86,2.37-3.32,14.53-20.48,20.94-32.27h0c2.26-4.16,6.54-11.99,9.84-17.73,1.03-1.79,2.27-3.94,2.61-4.52l.09-.15c2.84-4.9,4.1-7.01,4.82-8.23.66-1.12.87-1.47,1.45-2.53.9-1.66,3.15-5.99,3.89-7.53,2.19-4.54,3.84-10.75,4.54-13.41q.37-1.41.59-1.53l.18-.1.2.06c.49.15.42.41.12,1.52-.62,2.32-.94,3.85-.95,4.54.77-.81,2.36-3.52,3.45-5.39,2.89-4.95,3.72-6.16,4.58-5.77.51.23,1.57.72-3.55,16.23-3.18,9.63-7.53,21.14-11.62,30.77-1.71,4.03-3.43,7.84-5.24,11.65-1.84,3.87-3.78,7.72-5.76,11.46-.74,1.39-4.66,8.71-9.21,16.07-12.22,19.76-27.18,36.15-32.81,42.32-5.48,6-8.78,9.62-14.06,14.46-11.03,10.11-27.14,22.07-30.95,22.07ZM415.6,144.23s-.05.09-.09.15c-.34.58-1.58,2.72-2.61,4.51-3.3,5.73-7.57,13.56-9.83,17.71h0c-6.43,11.84-18.63,29.05-21,32.38-13.9,19.46-30.16,37.66-42.03,50.94-8.33,9.32-16.2,18.13-15.74,19.46,1.55.83,16.85-9.41,30.39-21.82,5.24-4.8,8.54-8.41,13.99-14.39,5.61-6.15,20.53-22.49,32.7-42.17,4.53-7.33,8.44-14.63,9.17-16.02,1.98-3.72,3.91-7.57,5.74-11.42,1.8-3.79,3.51-7.59,5.22-11.61,8.56-20.17,15.54-41.82,15.59-45.41-.73.82-2.14,3.24-3.21,5.08-3.05,5.23-3.95,6.48-4.84,6.03-.05-.03-.1-.06-.14-.09-.82,2.68-1.88,5.75-3.12,8.32-.75,1.55-3.01,5.9-3.91,7.57-.58,1.08-.8,1.43-1.47,2.57-.72,1.22-1.98,3.33-4.82,8.22h0Z"/><path class="cls-2" d="M341.04,246.84c-4.71,4.6-9.43,9.2-14.14,13.79"/><rect class="cls-5" x="324.09" y="253.24" width="19.75" height="1" transform="translate(-82.24 305.59) rotate(-44.33)"/><path class="cls-2" d="M439.6,103.9c1.04-.22,1.89.85,1.46,1.84-3.97,8.92-8.17,18.02-12.61,27.28-1.07,2.22-2.13,4.42-3.2,6.61-.74,1.51-2.97.5-2.38-1.07,4.13-11.04,8.27-22.08,12.4-33.13.16-.42.52-.74.96-.83,1.13-.24,2.26-.47,3.39-.71Z"/><path class="cls-5" d="M424.11,140.87c-.25,0-.5-.05-.73-.15-.79-.34-1.39-1.25-.98-2.33l12.4-33.13c.22-.59.71-1.01,1.32-1.14l3.39-.71c.67-.14,1.34.1,1.77.64.43.54.53,1.27.25,1.9-4.05,9.11-8.3,18.3-12.62,27.3-1.07,2.22-2.14,4.43-3.21,6.61-.35.71-.97,1.02-1.58,1.02ZM439.71,104.39l-3.39.71c-.27.06-.49.25-.59.51l-12.4,33.13c-.21.56.11.92.44,1.07.11.05.7.26,1.02-.39,1.07-2.18,2.14-4.39,3.2-6.6,4.32-8.99,8.56-18.17,12.61-27.27.13-.29.09-.62-.11-.87-.19-.24-.49-.34-.78-.28Z"/><path class="cls-2" d="M441.45,104.85c-4.97,15.49-11.7,32.9-20.91,51.34-6,12.02-13.02,22.83-19.15,32.47"/><path class="cls-5" d="M401.82,188.93l-.84-.54,1.34-2.11c5.73-9,12.23-19.19,17.78-30.32,8.21-16.44,15.24-33.69,20.88-51.27l.95.31c-5.66,17.63-12.7,34.92-20.94,51.41-5.58,11.17-12.09,21.39-17.83,30.41l-1.34,2.11Z"/><path class="cls-2" d="M434.7,103.4c.49-.04,1.2-.09,2.07-.17,2.02-.18,3.14-.31,3.84.19.03.02.73.53.77,1.1.01.12,0,.25-.2.95-.06.23-.12.44-.18.62-.03.12-.06.22-.09.29"/><path class="cls-5" d="M441.4,106.53l-.96-.3.08-.28c.05-.18.11-.38.17-.61.13-.47.19-.71.18-.78-.02-.24-.35-.58-.57-.74-.51-.36-1.5-.27-3.13-.13l-.38.03c-.87.08-1.59.13-2.08.17l-.07-1c.49-.04,1.2-.09,2.07-.17l.37-.03c1.87-.17,2.99-.26,3.8.31.16.11.92.7.98,1.46.02.21,0,.39-.21,1.13-.07.24-.13.45-.18.63l-.09.29Z"/><line class="cls-6" x1="327.61" y1="261.54" x2="336.18" y2="252.57"/><path class="cls-2" d="M342.75,243.21c1.68-1.43,3.76-3.26,6.08-5.45.41-.39,2.34-2.22,4.85-4.79,3.2-3.28,5.52-5.91,6.24-6.73,2.13-2.42,4.67-5.45,7.42-9.05"/><path class="cls-5" d="M343.1,243.58l-.69-.73c2.1-1.84,4.18-3.77,6.18-5.72.69-.68,2.56-2.52,4.93-5.03,2.97-3.14,5.25-5.77,6.35-7.06,2.6-3.05,5.14-6.25,7.54-9.51l.83.58c-2.42,3.27-4.97,6.49-7.58,9.56-1.11,1.3-3.4,3.95-6.39,7.1-2.38,2.52-4.26,4.37-4.96,5.05-2.02,1.97-4.11,3.9-6.22,5.76Z"/><path class="cls-2" d="M326.8,256.86c5.04-3.87,10.36-8.26,15.81-13.25,5.81-5.31,10.97-10.56,15.53-15.56"/><path class="cls-5" d="M327.1,257.26l-.61-.79c5.42-4.15,10.72-8.6,15.78-13.22,5.37-4.91,10.58-10.13,15.5-15.53l.74.67c-4.94,5.42-10.17,10.67-15.56,15.6-5.08,4.64-10.41,9.11-15.84,13.28Z"/><path class="cls-3" d="M326.8,258.94c2.9-2.72,5.81-5.43,8.71-8.15"/><g id="Camada_33"><path class="cls-2" d="M325.34,264c1.01.08,2.49.14,4.26-.06,8.49-.95,16.57-6.95,18.96-14.46.14-.44,1.81-5.82-.18-7.2-1.21-.84-3.37.07-4.5.54-1.95.82-3.22,2-4.14,2.94-3.79,3.86-6.18,8.12-6.12,8.16.05.03,2.42-2.9,2.01-3.34-.52-.56-6.28,2.31-8.91,7.9-1.02,2.17-1.31,4.17-1.38,5.52Z"/><path class="cls-5" d="M327.17,264.58c-.62,0-1.25-.03-1.87-.08l-.47-.04v-.47c.06-2.09.54-4.02,1.45-5.74,1.95-3.69,5.62-5.98,8.18-7.03,1.32-1.85,3.33-4.19,4.92-5.81,1.03-1.05,2.35-2.23,4.3-3.05,1.24-.52,3.55-1.48,4.98-.49,2.22,1.54.7,6.74.37,7.76-2.42,7.59-10.57,13.82-19.38,14.81-.82.09-1.66.14-2.49.14ZM325.86,263.54c1.23.07,2.47.04,3.69-.09,8.44-.95,16.23-6.88,18.54-14.11.6-1.88,1.38-5.69.01-6.64-.98-.68-3.03.18-4.02.59-1.79.75-2.97,1.8-3.98,2.83-1.54,1.57-2.92,3.19-3.97,4.55.31-.07.56-.11.76-.12.12,0,.51-.02.7.3.2.32.24.72-1.34,2.07-2.29,1.96-2.74,1.57-2.95,1.39-.13-.11-.21-.28-.21-.46,0-.23.13-.6.38-1.05-2.17,1.14-4.79,3.09-6.29,5.93-.76,1.45-1.2,3.07-1.3,4.82ZM335.13,252.02c-.27.39-.49.73-.66,1.01.53-.37,1.2-.91,1.67-1.35-.28.08-.62.19-1,.34Z"/></g><path class="cls-2" d="M422.6,119.15c-5.18,11.53-10.98,23.42-17.49,35.57-18.48,34.48-38.59,63.38-57.81,87.19,23.59-29.66,47.18-59.31,70.77-88.97,3.74-11.91,7.48-23.82,11.22-35.73-2.23.65-4.46,1.3-6.69,1.94Z"/><g id="Camada_32"><path class="cls-2" d="M307.79,177.12c1.15-1.01,2.3-2.03,3.44-3.04"/><rect class="cls-5" x="307.21" y="175.11" width="4.59" height="1" transform="translate(-38.74 248.8) rotate(-41.44)"/><path class="cls-2" d="M308.37,176.6c-.08,0-.13-.16-.15-.22-.62-1.71-4.4-6.35-3.65-7.13.17-.18.51-.08.94.05,1.78.52,3.15,2.46,3.35,4.43.14,1.36-.26,2.88-.49,2.88Z"/><path class="cls-5" d="M308.37,177.12h0c-.27,0-.48-.18-.62-.54-.22-.61-.93-1.71-1.62-2.77-1.71-2.64-2.64-4.17-1.92-4.92.38-.39.92-.24,1.43-.09,1.92.56,3.48,2.61,3.71,4.87.12,1.2-.14,2.77-.54,3.23l-.15.17-.3.05ZM304.93,169.68c.08.52,1.3,2.4,2.04,3.54.51.79,1,1.54,1.34,2.17.08-.45.13-1.03.07-1.61-.19-1.83-1.47-3.54-2.99-3.98-.15-.04-.33-.1-.45-.12Z"/><path class="cls-2" d="M425.53,107.26c.37.95,11.95-2.19,11.81-3.17-.06-.45-2.53-.43-3.62-.36-4.57.29-8.42,2.95-8.19,3.53Z"/><path class="cls-5" d="M426.23,107.94c-.97,0-1.09-.29-1.16-.5-.06-.15-.09-.4.12-.71.67-1.05,4.28-3.23,8.51-3.5,4-.25,4.11.5,4.15.79.05.34.18,1.24-6.53,2.99-2.72.71-4.23.93-5.08.93ZM434.95,104.19c-.39,0-.8.01-1.2.04-3.51.22-6.5,1.9-7.45,2.73,1.93-.04,8.25-1.73,10.12-2.7-.38-.04-.9-.07-1.47-.07Z"/><path class="cls-2" d="M171.97,372.96s-.15-.03-.31.02c-.38.11-7.11,2.84-6.88,3.28.06.12,1.67-.51,4.87-1.78,0,0,2.71-1.07,2.62-1.37-.02-.06-.18-.13-.3-.15Z"/><path class="cls-5" d="M164.73,376.78c-.23,0-.29-.11-.38-.28l-.11-.21.1-.28c.4-.93,7.14-3.49,7.2-3.51.26-.07.49-.03.53-.03h0c.17.03.58.15.68.49l.08.24-.17.28c-.31.42-2.2,1.25-2.82,1.45h0c-3.48,1.39-4.64,1.85-5.11,1.85ZM171.9,373.43s.04.04.06.04l.02-.51-.08.47Z"/><path class="cls-2" d="M168.07,373.85c.08.2,2.55-.39,2.52-.81,0-.06-.05-.09-.08-.12-.54-.45-2.52.74-2.45.93Z"/><path class="cls-5" d="M168.25,374.4c-.29,0-.54-.08-.65-.37h0c-.17-.44.27-.75.46-.88.02-.01,1.91-1.34,2.78-.61.16.13.24.29.25.47,0,.21.04.83-2.14,1.28-.22.05-.47.1-.7.1Z"/><path class="cls-2" d="M153.92,368.52l-2.21,1.45"/><rect class="cls-5" x="151.5" y="368.75" width="2.64" height="1" transform="translate(-177.4 144.18) rotate(-33.24)"/><path class="cls-2" d="M325.58,256.56c2.37-1.41,4.87-3.04,7.44-4.92,4.03-2.94,7.46-5.93,10.35-8.73"/><path class="cls-5" d="M325.84,256.99l-.51-.86c2.54-1.51,5.03-3.16,7.4-4.9,3.62-2.64,7.08-5.56,10.29-8.69l.7.72c-3.25,3.16-6.75,6.11-10.4,8.78-2.4,1.75-4.92,3.42-7.48,4.95Z"/></g><path class="cls-2" d="M152.04,369.76c-.13.08-.76.5-1.69,1.03-1.41.8-3.13,1.7-6,2.97-3.93,1.74-7.64,3.14-11.02,4.28h0s0,0,0,0c0,0-5.8,1.89-11.38,3.47-3.69,1.05-13.84,3.72-25.98,5.96-7.88,1.45-17.43,2.89-28.37,3.89,5.82,1.17,13.76,2.34,23.21,2.45,9.5.11,16.62-.89,23.23-1.86,13.84-2.04,24.13-5.09,27.2-6.03,8.24-2.52,18.37-6.26,29.46-11.96-11.93-5.18-16.72-5.38-18.64-4.19Z"/><path class="cls-5" d="M92.2,394.31c-.46,0-.93,0-1.4,0-7.81-.09-15.65-.92-23.31-2.46l-3.36-.68,3.41-.31c9.48-.86,19.01-2.17,28.33-3.88,13.42-2.47,23.96-5.39,25.94-5.95,5.51-1.56,11.3-3.44,11.36-3.46l.09-.02c3.87-1.31,7.41-2.69,10.89-4.24,3.06-1.36,4.73-2.25,5.96-2.95.76-.43,1.32-.79,1.56-.94l.12-.07c2.64-1.63,8.89-.27,19.11,4.16l.97.42-.94.48c-9.47,4.86-19.4,8.9-29.54,11.99-4.79,1.46-14.7,4.19-27.27,6.04-5.69.84-12.72,1.88-21.91,1.88ZM71.15,391.51c6.48,1.12,13.08,1.72,19.66,1.79,9.8.1,17.2-.98,23.15-1.86,12.51-1.84,22.36-4.56,27.12-6.01,9.74-2.97,19.3-6.82,28.43-11.44-11.41-4.84-15.66-4.76-17.21-3.8l-.1.07c-.25.16-.82.52-1.61.97-1.25.71-2.95,1.62-6.04,2.99-3.55,1.58-7.17,2.98-11.06,4.29l-.11.05h-.02c-.95.3-6.23,2-11.27,3.43-1.99.56-12.57,3.49-26.03,5.97-8.19,1.51-16.55,2.7-24.9,3.55Z"/><path class="cls-8" d="M196.81,234.37c10.92-6.7,22.31-13.2,33.86-19.32l.46-.24-.92-1.59-.11-.75c-1.56-10.16-.88-20.33,2.01-30.22,3.08-10.56,8.53-20.31,16.19-28.98l.45-.51-.63-.28c-.09-.04-9.04-3.97-14.65-5.51h0s-.45-.16-.45-.16c-.04-.01-3.82-1.36-8.65-2.83-1.33-.4-8.32-2.48-15.43-3.7-3.87-.66-14.3-2.05-27.42-.69-4.96.52-15.19,2.08-28.08,6.81-17.1,6.27-33.24,16.01-47.97,28.96l-1.71,1.5,15.24-4.52-21.04,23.99.11.28c.17.42.37.63.57.64l.19.05.17-.09c3.57-1.9,12.47-6.6,13.15-6.9.47-.2,1.31-.6,2.44-1.13,3.63-1.71,10.38-4.89,16.66-7.25,21.25-7.96,40.96-8.51,44.7-8.54,4.32-.03,15.95.23,30.38,3.42,4.11.91,8.23,2.01,12.25,3.27-.41,2.99-.72,6.02-.94,9.02-.26,3.59-.39,7.23-.38,10.82v1.94c-11.16,6.37-41.91,24.39-64.91,42.24-7.7,5.98-21.88,17.8-23.82,19.93l-.06-.06c-5.99,5.35-10.57,9.73-14.76,13.76-4.74,4.57-9.23,8.88-15.06,15.01-4.92,5.17-9.76,10.55-14.01,15.55-1.52,1.79-3.89,4.62-6.58,7.99-5.43,6.8-12.05,15.91-19.14,26.35-5.81,8.55-11.52,17.39-16.96,26.27l-3.94,6.41,4.75-5.84c17.59-21.61,37.37-42.67,58.8-62.59,4.78-4.45,9.54-8.74,14.15-12.77,25.5-22.28,52.76-42.39,81.04-59.75Z"/><path class="cls-7" d="M327.85,248.11c-.25-5.76-.49-11.2-2.07-18.5-.62-2.86-1.38-5.72-2.28-8.51l-.27-.85-.58.67c-4.17,4.82-8.7,9.35-13.44,13.45-10.32,8.94-19.24,16.65-32.5,18.79-6.22,1-11.68.41-14.3.12-.39-.04-.71-.08-.96-.1-4.59-.4-8.33-1.96-11.63-3.34-.64-.27-1.27-.53-1.88-.77-3.19-1.27-4.45-1.99-5.47-2.56-.72-.41-1.29-.73-2.28-1.09l7.97-11.74-4.98-2.82-24.32,14.69h.3c-.75.31-1.48.66-2.17,1.04-2.36,1.3-5.48,3.62-8.23,5.67-3.89,2.89-5.42,4-6.49,4.77-1.06.76-1.66,1.19-3.6,2.68l-1.26.96c-3.76,2.86-5.83,4.44-8.56,6.7-2.85,2.35-5.74,4.82-8.58,7.35-8.26,7.32-15.48,14.67-21.28,20.57-3.41,3.47-6.36,6.47-8.73,8.66l-.14.13c-.58.54-1.91,1.76-3.65,3.44-1.02.99-1.69,1.66-2.41,2.37-.55.55-1.13,1.13-1.91,1.9-1.42,1.39-2.92,2.82-4.45,4.25-1.35,1.26-3.39,3.16-5.08,4.57-7.76,6.52-15.21,10.14-15.34,10.21-1.47.71-2.75,1.33-3.51,2.76-1.09,2.04-.38,4.61,2.43,8.87,3.93,5.96,9.19,11.01,16.56,15.9,4.11,2.73,8.77,5.29,13.46,7.4,7.49,3.37,13.65,4.98,16.96,5.85,2.41.63,7.39,1.83,13.69,2.76.75.11,2.15.31,3.93.53,4.54.54,9.24.87,13.96.96.97.02,1.93.03,2.9.03,3.73,0,7.48-.15,11.19-.44,1.25-.1,2.38-.17,3.46-.24,2.16-.14,4.21-.27,6.69-.57,4.57-.55,9.19-1.37,13.34-2.37,4.18-1,8.4-2.28,12.54-3.8,4.65-1.7,8.02-3.28,10.24-4.32,9.9-4.64,17.1-9.28,19.74-11.06,5.3-3.58,9.38-6.88,11.86-9.02,7.2-6.19,13.79-13.33,19.57-21.22,3.14-4.28,6.79-9.48,10.47-16.96,2.44-4.96,4.49-10.17,6.1-15.44,1.26-3.44,2.27-6.99,3.01-10.57.52-2.53.87-4.86,1.2-8.05,1.26-12.13.85-22.56.8-23.71Z"/><path class="cls-4" d="M262.12,141.89l5.93-16.21-12.25-11.96,16.09,5.84,12.03-12.37-5.92,16.21,12.25,11.96-16.09-5.84-12.03,12.38ZM271.85,123.8l.84.82-.38,1.05.78-.8,1.11.4-.84-.82.38-1.05-.78.8-1.1-.4Z"/><path class="cls-1" d="M273.92,123.3c-.67-.41-1.86-1.14-2.64-.63-.57.37-.62,1.19-.66,1.74-.03.52-.11,1.67.63,2.22.87.65,2.25.03,2.94-.54.24-.2,1.02-.84.9-1.59-.08-.54-.58-.84-1.17-1.2Z"/></g><g id="Camada_34"><path class="cls-5" d="M276.89,217.9c-17.91,0-32.47-14.57-32.47-32.47s14.57-32.47,32.47-32.47,32.47,14.57,32.47,32.47-14.57,32.47-32.47,32.47ZM276.89,159.96c-14.05,0-25.47,11.43-25.47,25.47s11.43,25.47,25.47,25.47,25.47-11.43,25.47-25.47-11.43-25.47-25.47-25.47Z"/></g></svg>